 http://www.imdb.com/title/tt0475276

Source: United.93.2006.720p.BluRay.X264-AMIABLE Thanks!

Subs: Czech, Danish, Dutch, English, Greek, Hungarian, Romanian and Slovenian.

Sample and Screens included.

General
Complete name                    : United 93-720p MP4 AAC x264 BRRip 2006-CC.mp4
Format                           : MPEG-4
Format profile                   : Base Media
Codec ID                         : isom
File size                        : 2.30 GiB
Duration                         : 1h 50mn
Overall bit rate                 : 2 970 Kbps
Encoded date                     : UTC 2012-08-22 18:52:01

Video
ID                               : 1
Format                           : AVC
Format/Info                      : Advanced Video Codec
Format profile                   : High@L3.1
Format settings, CABAC           : Yes
Format settings, ReFrames        : 5 frames
Codec ID                         : avc1
Codec ID/Info                    : Advanced Video Coding
Duration                         : 1h 50mn
Bit rate mode                    : Variable
Bit rate                         : 2 582 Kbps
Nominal bit rate                 : 2 714 Kbps
Maximum bit rate                 : 30.7 Mbps
Width                            : 1 280 pixels
Height                           : 544 pixels
Display aspect ratio             : 2.35:1
Frame rate mode                  : Variable
Frame rate                       : 23.976 fps
Minimum frame rate               : 15.997 fps
Maximum frame rate               : 25.000 fps
Resolution                       : 24 bits
Colorimetry                      : 4:2:0
Scan type                        : Progressive
Bits/(Pixel*Frame)               : 0.155
Stream size                      : 2.00 GiB (87%)
Writing library                  : x264 core 112

Audio
ID                               : 2
Format                           : AAC
Format/Info                      : Advanced Audio Codec
Format version                   : Version 4
Format profile                   : LC
Format settings, SBR             : No
Codec ID                         : 40
Duration                         : 1h 50mn
Bit rate mode                    : Variable
Bit rate                         : 384 Kbps
Maximum bit rate                 : 610 Kbps
Channel(s)                       : 6 channels
Channel positions                : Front: L C R, Rear: L R, LFE
Sampling rate                    : 48.0 KHz
Resolution                       : 16 bits
Stream size                      : 304 MiB (13%)
Language                         : English

Enjoy...

Requested by cmptrluvr's. 

Coming up: The Bourne Trilogy, The French Connection Duology, Executive Decision and more...